Coordinates
version=1
nRows=11
nColumns=40
inDegrees=yes

Units are S.I. units (second, meters, Newtons, ...)
Angles are in degrees.

endheader
time	pelvis_tilt	pelvis_list	pelvis_rotation	pelvis_tx	pelvis_ty	pelvis_tz	hip_flexion_r	hip_adduction_r	hip_rotation_r	knee_angle_r	knee_angle_r_beta	ankle_angle_r	subtalar_angle_r	mtp_angle_r	hip_flexion_l	hip_adduction_l	hip_rotation_l	knee_angle_l	knee_angle_l_beta	ankle_angle_l	subtalar_angle_l	mtp_angle_l	lumbar_extension	lumbar_bending	lumbar_rotation	arm_flex_r	arm_add_r	arm_rot_r	elbow_flex_r	pro_sup_r	wrist_flex_r	wrist_dev_r	arm_flex_l	arm_add_l	arm_rot_l	elbow_flex_l	pro_sup_l	wrist_flex_l	wrist_dev_l
     38.90500000	     -4.69257758	     -4.77300844	      2.83078279	      0.91288050	      0.91981712	      0.45989697	      1.54231160	     -1.23749235	    -13.48379965	     26.66369994	     26.66369994	     16.83271520	     -1.37418402	     -6.70721629	     27.88484938	     -5.24134202	     -0.92936844	     27.85826581	     27.85826581	      8.04477493	    -15.85742610	      7.70779271	     -8.31096339	      5.48028753	      4.07877642	     30.75947011	    -16.08226563	      3.09662598	    101.74383580	     43.93174657	      0.00000000	      0.00000000	     -6.24004701	     -9.14569733	     -7.69506901	     34.93685658	     45.43472810	      0.00000000	      0.00000000
     38.91828571	     -4.78011504	     -4.70617282	      2.68407236	      0.91331265	      0.92046269	      0.45709808	      2.64581896	     -1.76190073	    -12.83928123	     29.04365720	     29.04365720	     13.89494159	     -3.92650511	    -12.92696099	     27.41692602	     -5.06215218	     -1.11896691	     27.86992884	     27.86992884	      8.64869265	    -15.75911361	      8.01109745	     -8.28351491	      5.37926829	      3.26081335	     30.59642627	    -15.29442831	      3.48386102	     98.27599541	     44.13100834	      0.00000000	      0.00000000	     -7.28204534	     -9.60553818	     -6.65911100	     38.48258426	     45.37926031	      0.00000000	      0.00000000
     38.93157143	     -4.77863804	     -4.53188159	      2.51756256	      0.91369225	      0.92117178	      0.45425837	      4.03551379	     -2.56126715	    -12.45024736	     32.34263877	     32.34263877	     12.82449953	     -5.14215997	    -13.57807371	     26.78231140	     -4.80382764	     -1.47532892	     27.76375032	     27.76375032	      9.08515307	    -15.63120688	      7.79298656	     -8.43685578	      5.20926399	      3.40820467	     29.43707581	    -15.48074764	      3.48777841	     97.01756309	     44.17467840	      0.00000000	      0.00000000	     -6.47073794	     -9.73045519	     -6.66089597	     39.15621309	     45.39998514	      0.00000000	      0.00000000
     38.94485714	     -4.90842030	     -4.43878099	      2.32250543	      0.91378860	      0.92158488	      0.45157421	      5.76601953	     -3.21731590	    -11.87593958	     35.82936424	     35.82936424	     11.25508033	     -6.89566864	    -14.40696637	     26.30669901	     -4.62748328	     -1.78003598	     27.63131900	     27.63131900	      9.46610203	    -15.51752241	      7.56104755	     -8.41459568	      5.07038670	      3.52347882	     28.21448064	    -15.63708289	      3.23162640	     95.23835402	     44.24432726	      0.00000000	      0.00000000	     -5.87258707	     -9.87328190	     -6.60424309	     40.20192099	     45.41480777	      0.00000000	      0.00000000
     38.95814286	     -4.93200080	     -4.43724169	      2.19395113	      0.91386429	      0.92201501	      0.44899093	      7.31252380	     -3.61106985	    -11.15989394	     38.91343692	     38.91343692	      7.99600516	    -10.26639020	    -18.66534974	     25.78149737	     -4.54641304	     -2.01185199	     27.57292181	     27.57292181	      9.74831032	    -15.37971734	      7.00637765	     -8.45606414	      5.08619701	      2.87032727	     27.67022164	    -14.73697753	      2.74315536	     91.71205846	     44.43952497	      0.00000000	      0.00000000	     -6.68599291	    -10.52229730	     -5.51368116	     44.01862974	     45.39947092	      0.00000000	      0.00000000
     38.97142857	     -4.91148743	     -4.24116227	      2.04302822	      0.91373847	      0.92237007	      0.44629917	      9.11693638	     -4.39132314	    -10.74298113	     42.66243124	     42.66243124	      6.16859921	    -11.88474768	    -18.60314477	     25.19701070	     -4.26271368	     -2.33815435	     27.51382855	     27.51382855	     10.16030872	    -15.23284461	      6.77761406	     -8.64391364	      4.95091843	      2.89255322	     26.28401086	    -14.89050643	      2.68802763	     90.34668989	     44.48565461	      0.00000000	      0.00000000	     -5.83492858	    -10.70485310	     -5.53872217	     44.80998168	     45.42576359	      0.00000000	      0.00000000
     38.98471429	     -4.98125509	     -4.12563482	      1.88620627	      0.91339737	      0.92256842	      0.44373886	     11.11849477	     -4.97273440	    -10.19919876	     46.36290709	     46.36290709	      4.05999623	    -13.91345890	    -18.16083798	     24.74232522	     -4.05847737	     -2.63544704	     27.46184252	     27.46184252	     10.53913970	    -15.10188004	      6.54064250	     -8.70462375	      4.90368658	      2.97620005	     24.82465903	    -15.02250495	      2.33167379	     88.47257523	     44.55772006	      0.00000000	      0.00000000	     -5.10916158	    -10.91271212	     -5.49634835	     45.97655742	     45.44764193	      0.00000000	      0.00000000
     38.99800000	     -5.01673003	     -4.07322568	      1.73172857	      0.91298162	      0.92275925	      0.44134985	     13.10396434	     -5.42281672	     -9.69896434	     49.91766099	     49.91766099	      1.90960883	    -15.86824235	    -17.23173195	     24.26258538	     -3.92663388	     -2.85830461	     27.41540127	     27.41540127	     10.98508079	    -14.96842878	      6.26762546	     -8.79437851	      4.85911558	      2.99812902	     23.37505880	    -15.02107044	      1.75938139	     86.28677336	     44.64697170	      0.00000000	      0.00000000	     -4.44938963	    -11.14936818	     -5.35507216	     47.43959458	     45.46324801	      0.00000000	      0.00000000
     39.01128571	     -4.95399622	     -4.10783042	      1.63827997	      0.91243738	      0.92311016	      0.43905507	     15.04351009	     -5.70312848	     -9.26525632	     53.44129543	     53.44129543	      0.78037535	    -16.96464616	    -13.20819709	     23.73455572	     -3.90021470	     -3.07072558	     27.42650077	     27.42650077	     11.34423854	    -14.70003677	      5.83848506	     -8.95159980	      4.99872159	      2.59353344	     22.66995983	    -13.74709335	     -0.44905167	     81.72325368	     44.88485692	      0.00000000	      0.00000000	     -4.93066803	    -11.95817476	     -4.15305369	     51.31987051	     45.43451835	      0.00000000	      0.00000000
     39.02457143	     -4.96553656	     -3.91822999	      1.53109828	      0.91176183	      0.92334027	      0.43662892	     16.98200645	     -6.38298199	     -9.09538952	     56.57099299	     56.57099299	     -0.93760437	    -17.98513234	    -11.99876619	     23.21039281	     -3.59864812	     -3.33804638	     27.30052731	     27.30052731	     11.69817289	    -14.60072001	      5.66840301	     -9.11664832	      4.93976238	      2.46097115	     20.99775873	    -13.93118919	     -0.44984920	     80.21342314	     44.93030715	      0.00000000	      0.00000000	     -4.04119223	    -12.22268561	     -4.15604563	     52.25694784	     45.46264333	      0.00000000	      0.00000000
     39.03785714	     -5.11420408	     -3.78288563	      1.29070339	      0.91095137	      0.92342026	      0.43457900	     19.13874629	     -6.87935171	     -8.77745504	     59.52610474	     59.52610474	     -1.85749126	    -18.50399443	     -9.11078949	     22.78046554	     -3.39180300	     -3.63163194	     27.08934333	     27.08934333	     12.09997586	    -14.51561293	      5.45990684	     -9.06771701	      4.84109261	      2.86092314	     19.35051099	    -14.33627492	     -1.10552837	     77.27801896	     45.04630551	      0.00000000	      0.00000000	     -3.19769697	    -12.41351726	     -3.94059062	     53.98190557	     45.48721622	      0.00000000	      0.00000000
